<svg viewBox="0 0 1400 860" xmlns="http://www.w3.org/2000/svg" font-family="-apple-system, BlinkMacSystemFont, 'Segoe UI', sans-serif">
  <rect width="1400" height="860" fill="white"/>

  <!-- Top label -->
  <text x="20" y="20" font-size="10" font-weight="700" fill="#888" letter-spacing="1.5">THE EDUCATOR ECOSYSTEM</text>
  <line x1="0" y1="28" x2="1400" y2="28" stroke="#e0e0e0" stroke-width="1"/>

  <!-- Title -->
  <text x="20" y="68" font-size="36" font-weight="800" fill="#111">How everything fits in, organised by purpose</text>
  <text x="20" y="92" font-size="14" fill="#777">Jobs To Be Done as viewed by educators. All on a shared platform.</text>
  <line x1="0" y1="108" x2="1400" y2="108" stroke="#e0e0e0" stroke-width="1"/>

  <!-- Left labels column -->
  <rect x="0" y="108" width="118" height="652" fill="#f8f9fb"/>
  <line x1="118" y1="108" x2="118" y2="760" stroke="#e0e0e0" stroke-width="1"/>

  <!-- ── IDENTITY row: 108–172 ── -->
  <text x="59" y="134" text-anchor="middle" font-size="10" font-weight="800" fill="#333" letter-spacing="0.8">IDENTITY</text>
  <text x="59" y="149" text-anchor="middle" font-size="9" fill="#999">who you are</text>

  <rect x="126" y="114" width="1256" height="52" rx="3" fill="#eaeff8" stroke="#b8c8e8" stroke-width="1"/>
  <text x="146" y="135" font-size="13" font-weight="700" fill="#1a237e">Edupass</text>
  <text x="222" y="135" font-size="12" fill="#444">   Identity &amp; access context. SSO across all DWSB products; each product enforces its own permissions.</text>
  <rect x="1208" y="120" width="166" height="24" rx="12" fill="#00897b"/>
  <text x="1291" y="136" text-anchor="middle" font-size="10" font-weight="600" fill="white">Done by Edupass Team</text>

  <line x1="118" y1="172" x2="1382" y2="172" stroke="#e0e0e0" stroke-width="1"/>

  <!-- ── ENGAGEMENT row: 172–252 ── -->
  <text x="59" y="203" text-anchor="middle" font-size="10" font-weight="800" fill="#333" letter-spacing="0.8">ENGAGEMENT</text>
  <text x="59" y="218" text-anchor="middle" font-size="9" fill="#999">what teachers see</text>

  <rect x="126" y="178" width="616" height="68" rx="3" fill="#eaeff8" stroke="#b8c8e8" stroke-width="1"/>
  <text x="146" y="200" font-size="13" font-weight="700" fill="#1a237e">Teacher Workspace</text>
  <rect x="630" y="184" width="100" height="22" rx="11" fill="#e65100"/>
  <text x="680" y="199" text-anchor="middle" font-size="9" font-weight="700" fill="white">FRONT DOOR</text>
  <text x="146" y="220" font-size="11" fill="#555">Front door: presents, captures, coordinates 17+ tools. Owns no business logic.</text>

  <rect x="750" y="178" width="632" height="68" rx="3" fill="#eaeff8" stroke="#b8c8e8" stroke-width="1"/>
  <text x="770" y="200" font-size="13" font-weight="700" fill="#1a237e">TW Mobile</text>
  <rect x="1276" y="184" width="98" height="22" rx="11" fill="#e65100"/>
  <text x="1325" y="199" text-anchor="middle" font-size="9" font-weight="700" fill="white">EXPLORATION</text>
  <text x="770" y="220" font-size="11" fill="#555">Companion app: attendance, profiles, incident logging.</text>

  <line x1="118" y1="252" x2="1382" y2="252" stroke="#e0e0e0" stroke-width="1"/>

  <!-- ── INTELLIGENCE row: 252–350 ── -->
  <text x="59" y="284" text-anchor="middle" font-size="10" font-weight="800" fill="#333" letter-spacing="0.8">INTELLIGENCE</text>
  <text x="59" y="299" text-anchor="middle" font-size="9" fill="#999">right info, right time</text>

  <rect x="126" y="258" width="1256" height="86" rx="3" fill="#e0f2f1" stroke="#80cbc4" stroke-width="1.5"/>
  <text x="146" y="280" font-size="13" font-weight="700" fill="#004d40">Educator Productivity Intelligence Gateway</text>
  <rect x="1180" y="263" width="194" height="24" rx="12" fill="#00897b"/>
  <text x="1277" y="279" text-anchor="middle" font-size="9" font-weight="700" fill="white">CONTEXTUAL INTELLIGENCE</text>
  <text x="146" y="302" font-size="11" fill="#444">Routes requests, evaluates data triggers, runs AI Assist, retrieves contextual guidance (RAG), and composes multi-system responses.</text>
  <text x="146" y="318" font-size="11" fill="#444">Owns write-back and the reconciliation ledger.</text>
  <text x="146" y="334" font-size="10" fill="#888" font-style="italic">Guardrails (data classification, Sensitive-High masking, output grounding, audit) are embedded, not external.</text>

  <line x1="118" y1="350" x2="1382" y2="350" stroke="#e0e0e0" stroke-width="1"/>

  <!-- WHAT EDUCATORS NEED DONE subheader -->
  <text x="146" y="367" font-size="10" font-weight="700" fill="#aaa" letter-spacing="0.8">WHAT EDUCATORS NEED DONE</text>

  <!-- ── WORK row: 350–540 ── -->
  <text x="59" y="438" text-anchor="middle" font-size="10" font-weight="800" fill="#333" letter-spacing="0.8">WORK</text>
  <text x="59" y="453" text-anchor="middle" font-size="9" fill="#999">jobs to be done</text>

  <!-- 6 columns, each ~209px wide. Starts: 126, 335, 544, 753, 962, 1171. Centers: 230, 439, 648, 857, 1066, 1277 -->
  <!-- Vertical separators -->
  <line x1="335" y1="370" x2="335" y2="540" stroke="#e8e8e8" stroke-width="1"/>
  <line x1="544" y1="370" x2="544" y2="540" stroke="#e8e8e8" stroke-width="1"/>
  <line x1="753" y1="370" x2="753" y2="540" stroke="#e8e8e8" stroke-width="1"/>
  <line x1="962" y1="370" x2="962" y2="540" stroke="#e8e8e8" stroke-width="1"/>
  <line x1="1171" y1="370" x2="1171" y2="540" stroke="#e8e8e8" stroke-width="1"/>

  <!-- Col 1: Know my students -->
  <text x="230" y="386" text-anchor="middle" font-size="11" font-weight="700" fill="#1a237e">Know my students</text>
  <text x="230" y="401" text-anchor="middle" font-size="9" fill="#999">one view per child</text>
  <rect x="136" y="408" width="190" height="26" rx="3" fill="#e3f2fd" stroke="#90caf9" stroke-width="1.5"/>
  <text x="231" y="425" text-anchor="middle" font-size="11" fill="#1565c0">Student Insights</text>

  <!-- Col 2: Handle student matters -->
  <text x="439" y="386" text-anchor="middle" font-size="11" font-weight="700" fill="#1a237e">Handle student matters</text>
  <text x="439" y="401" text-anchor="middle" font-size="9" fill="#999">casework &amp; support</text>
  <rect x="344" y="408" width="190" height="22" rx="2" fill="#f5f5f5" stroke="#ddd"/>
  <text x="439" y="423" text-anchor="middle" font-size="10" fill="#555">CaseSync</text>
  <rect x="344" y="432" width="190" height="22" rx="2" fill="#f5f5f5" stroke="#ddd"/>
  <text x="439" y="447" text-anchor="middle" font-size="10" fill="#555">SDIS</text>
  <rect x="344" y="456" width="190" height="22" rx="2" fill="#f5f5f5" stroke="#ddd"/>
  <text x="439" y="471" text-anchor="middle" font-size="10" fill="#555">SPED</text>
  <rect x="344" y="480" width="190" height="22" rx="2" fill="#f5f5f5" stroke="#ddd"/>
  <text x="439" y="495" text-anchor="middle" font-size="10" fill="#555">MK</text>
  <rect x="344" y="504" width="190" height="22" rx="2" fill="#f5f5f5" stroke="#ddd"/>
  <text x="439" y="519" text-anchor="middle" font-size="10" fill="#555">Prog. &amp; Awards</text>

  <!-- Col 3: Communicate with parents -->
  <text x="648" y="386" text-anchor="middle" font-size="11" font-weight="700" fill="#1a237e">Communicate with parents</text>
  <text x="648" y="401" text-anchor="middle" font-size="9" fill="#999">reach families</text>
  <rect x="553" y="408" width="190" height="22" rx="2" fill="#f5f5f5" stroke="#ddd"/>
  <text x="648" y="423" text-anchor="middle" font-size="10" fill="#555">Parent Comms</text>
  <rect x="553" y="432" width="190" height="22" rx="2" fill="#f5f5f5" stroke="#ddd"/>
  <text x="648" y="447" text-anchor="middle" font-size="10" fill="#555">HeyTalia</text>

  <!-- Col 4: Grow professionally -->
  <text x="857" y="386" text-anchor="middle" font-size="11" font-weight="700" fill="#1a237e">Grow professionally</text>
  <text x="857" y="401" text-anchor="middle" font-size="9" fill="#999">appraisal &amp; growth</text>
  <rect x="762" y="408" width="190" height="22" rx="2" fill="#f5f5f5" stroke="#ddd"/>
  <text x="857" y="423" text-anchor="middle" font-size="10" fill="#555">COVAA</text>
  <rect x="762" y="432" width="190" height="22" rx="2" fill="#f5f5f5" stroke="#ddd"/>
  <text x="857" y="447" text-anchor="middle" font-size="10" fill="#555">PLS</text>
  <rect x="762" y="456" width="190" height="22" rx="2" fill="#f5f5f5" stroke="#ddd"/>
  <text x="857" y="471" text-anchor="middle" font-size="10" fill="#555">GLOW</text>

  <!-- Col 5: Get admin done fast -->
  <text x="1066" y="386" text-anchor="middle" font-size="11" font-weight="700" fill="#1a237e">Get admin done fast</text>
  <text x="1066" y="401" text-anchor="middle" font-size="9" fill="#999">fewer clicks</text>
  <rect x="971" y="408" width="190" height="22" rx="2" fill="#f5f5f5" stroke="#ddd"/>
  <text x="1066" y="423" text-anchor="middle" font-size="10" fill="#555">ReliefCher</text>
  <rect x="971" y="432" width="190" height="22" rx="2" fill="#f5f5f5" stroke="#ddd"/>
  <text x="1066" y="447" text-anchor="middle" font-size="10" fill="#555">Allocate</text>
  <rect x="971" y="456" width="190" height="22" rx="2" fill="#f5f5f5" stroke="#ddd"/>
  <text x="1066" y="471" text-anchor="middle" font-size="10" fill="#555">Data Entry</text>
  <rect x="971" y="480" width="190" height="22" rx="2" fill="#f5f5f5" stroke="#ddd"/>
  <text x="1066" y="495" text-anchor="middle" font-size="10" fill="#555">STARS</text>
  <rect x="971" y="504" width="190" height="22" rx="2" fill="#f5f5f5" stroke="#ddd"/>
  <text x="1066" y="519" text-anchor="middle" font-size="10" fill="#555">FlexiList</text>

  <!-- Col 6: Run the school -->
  <text x="1277" y="386" text-anchor="middle" font-size="11" font-weight="700" fill="#1a237e">Run the school</text>
  <text x="1277" y="401" text-anchor="middle" font-size="9" fill="#999">resourcing &amp; ops</text>
  <rect x="1180" y="408" width="194" height="22" rx="2" fill="#f5f5f5" stroke="#ddd"/>
  <text x="1277" y="423" text-anchor="middle" font-size="10" fill="#555">LRMS</text>
  <rect x="1180" y="432" width="194" height="22" rx="2" fill="#f5f5f5" stroke="#ddd"/>
  <text x="1277" y="447" text-anchor="middle" font-size="10" fill="#555">SUMS</text>
  <rect x="1180" y="456" width="194" height="22" rx="2" fill="#f5f5f5" stroke="#ddd"/>
  <text x="1277" y="471" text-anchor="middle" font-size="10" fill="#555">SEMSS</text>

  <line x1="118" y1="540" x2="1382" y2="540" stroke="#e0e0e0" stroke-width="1"/>

  <!-- ── COMPUTE row: 540–622 ── -->
  <text x="59" y="571" text-anchor="middle" font-size="10" font-weight="800" fill="#333" letter-spacing="0.8">COMPUTE</text>
  <text x="59" y="586" text-anchor="middle" font-size="9" fill="#999">headless engine</text>

  <rect x="126" y="546" width="1256" height="70" rx="3" fill="#fff8e1" stroke="#ffe082" stroke-width="1"/>
  <text x="146" y="566" font-size="12" font-weight="700" fill="#e65100">School Cockpit · Compute Engine</text>
  <text x="426" y="566" font-size="11" fill="#999" font-style="italic">  headless processing that powers some of the products above</text>

  <rect x="136" y="572" width="128" height="32" rx="2" fill="white" stroke="#ffe082" stroke-width="1"/>
  <text x="200" y="592" text-anchor="middle" font-size="10" fill="#555">Results Calc.</text>
  <rect x="272" y="572" width="108" height="32" rx="2" fill="white" stroke="#ffe082" stroke-width="1"/>
  <text x="326" y="592" text-anchor="middle" font-size="10" fill="#555">Attendance</text>
  <rect x="388" y="572" width="118" height="32" rx="2" fill="white" stroke="#ffe082" stroke-width="1"/>
  <text x="447" y="592" text-anchor="middle" font-size="10" fill="#555">Student Alloc.</text>
  <rect x="514" y="572" width="108" height="32" rx="2" fill="white" stroke="#ffe082" stroke-width="1"/>
  <text x="568" y="592" text-anchor="middle" font-size="10" fill="#555">Batch Jobs</text>
  <rect x="630" y="572" width="108" height="32" rx="2" fill="white" stroke="#ffe082" stroke-width="1"/>
  <text x="684" y="592" text-anchor="middle" font-size="10" fill="#555">Grad. Cert</text>
  <rect x="746" y="572" width="108" height="32" rx="2" fill="white" stroke="#ffe082" stroke-width="1"/>
  <text x="800" y="592" text-anchor="middle" font-size="10" fill="#555">Staff Info</text>
  <rect x="862" y="572" width="108" height="32" rx="2" fill="white" stroke="#ffe082" stroke-width="1"/>
  <text x="916" y="592" text-anchor="middle" font-size="10" fill="#555">Vacancies</text>
  <rect x="978" y="572" width="108" height="32" rx="2" fill="white" stroke="#ffe082" stroke-width="1"/>
  <text x="1032" y="592" text-anchor="middle" font-size="10" fill="#555">Report Gen</text>

  <line x1="118" y1="622" x2="1382" y2="622" stroke="#e0e0e0" stroke-width="1"/>

  <!-- ── CONTEXT row: 622–780 ── -->
  <text x="59" y="694" text-anchor="middle" font-size="10" font-weight="800" fill="#333" letter-spacing="0.8">CONTEXT</text>
  <text x="59" y="709" text-anchor="middle" font-size="9" fill="#999">grounding data</text>

  <!-- School Cockpit System of Record -->
  <rect x="126" y="628" width="404" height="140" rx="3" fill="#f3e5f5" stroke="#ce93d8" stroke-width="1"/>
  <text x="146" y="650" font-size="12" font-weight="700" fill="#6a1b9a">School Cockpit</text>
  <text x="146" y="666" font-size="9" font-weight="700" fill="#7b1fa2" letter-spacing="0.8">SYSTEM OF RECORD</text>
  <text x="146" y="686" font-size="11" fill="#444">Authoritative operational record. One master</text>
  <text x="146" y="702" font-size="11" fill="#444">per data element. Feeds 35+ downstream</text>
  <text x="146" y="718" font-size="11" fill="#444">national systems.</text>

  <!-- EduHub -->
  <rect x="538" y="628" width="404" height="140" rx="3" fill="#e8f5e9" stroke="#a5d6a7" stroke-width="1"/>
  <text x="558" y="650" font-size="12" font-weight="700" fill="#1b5e20">EduHub</text>
  <text x="558" y="666" font-size="9" font-weight="700" fill="#2e7d32" letter-spacing="0.8">EXCHANGE + ANALYTICS</text>
  <text x="558" y="686" font-size="11" fill="#444">Governed exchange and analytical lakehouse.</text>
  <text x="558" y="702" font-size="11" fill="#444">Two jobs: fast exchange, system of record</text>
  <text x="558" y="718" font-size="11" fill="#444">here. One system, two architectural roles.</text>

  <!-- Knowledge Bases -->
  <rect x="950" y="628" width="432" height="140" rx="3" fill="#e3f2fd" stroke="#90caf9" stroke-width="1"/>
  <text x="970" y="650" font-size="12" font-weight="700" fill="#0d47a1">Knowledge Bases</text>
  <text x="970" y="666" font-size="9" font-weight="700" fill="#1565c0" letter-spacing="0.8">BUSINESS-OWNED</text>
  <text x="970" y="686" font-size="11" fill="#444">Curated domain guidance from business</text>
  <text x="970" y="702" font-size="11" fill="#444">partners (SD, SEAB, SDCD, DXD).</text>
  <text x="970" y="718" font-size="11" fill="#444">Feeds the Intelligence layer.</text>

  <line x1="0" y1="774" x2="1400" y2="774" stroke="#e0e0e0" stroke-width="1"/>

  <!-- Footer -->
  <text x="20" y="796" font-size="10" fill="#666" font-style="italic">School Cockpit spans Work and Context: compute engine above, system of record here. One system, two architectural roles.</text>
  <text x="20" y="816" font-size="10" fill="#777">Adjacent surfaces (not DWSB-owned, fed by EduHub): Student Space · Student Learning Space · Parents Gateway · external apps (Google, OpenAI).</text>

  <!-- DXD logo -->
  <rect x="20" y="828" width="44" height="26" rx="3" fill="#1a2744"/>
  <text x="42" y="846" text-anchor="middle" font-size="11" font-weight="800" fill="white">dxd</text>

  <!-- Page number -->
  <text x="1380" y="846" text-anchor="end" font-size="12" fill="#aaa">04 / 12</text>
</svg>
